<svg width="150" height="156" viewBox="0 0 150 156" fill="none" xmlns="http://www.w3.org/2000/svg">
<g clip-path="url(#clip0)">
<path opacity="0.4" d="M92.4088 122.599L73.8166 111.854C72.4751 111.08 72.6444 109.725 74.1934 108.833L86.238 101.87L109.695 115.406L97.6502 122.368C96.1043 123.276 93.7631 123.372 92.4088 122.599Z" fill="#D6D8E5"/>
<path d="M93.7786 121.799L75.1863 111.055C73.8448 110.281 74.0141 108.926 75.5632 108.034L87.6173 101.071L111.061 114.619L99.0167 121.582C97.4612 122.477 95.12 122.573 93.7786 121.799Z" fill="#B1B4C4"/>
<path d="M111.055 114.623V113.91L109.972 114.536L111.055 114.623Z" fill="#B1B4C4"/>
<path d="M74.2831 109.773V109.054L75.3946 109.514L74.2831 109.773Z" fill="#B1B4C4"/>
<path d="M93.7786 121.087L75.1863 110.345C73.8448 109.568 74.0141 108.216 75.5632 107.321L87.6173 100.361L111.061 113.91L99.0167 120.869C97.4612 121.764 95.12 121.863 93.7786 121.087Z" fill="#D6D8E5"/>
<path d="M87.6722 100.393L84.7689 90.7582L108.472 104.364L111.055 113.91L87.6722 100.393Z" fill="#9EA1AF"/>
<path d="M110.366 114.306L111.053 113.91L110.034 113.094L110.366 114.306Z" fill="#9EA1AF"/>
<path d="M86.9218 100.755L84.0217 91.1193L107.724 104.728L110.366 114.306L86.9218 100.755Z" fill="#B1B4C4"/>
<path d="M147.09 130.546L55.3587 77.5296C54.0811 76.7879 53.0271 74.7899 53.0271 73.0732V2.04262C53.0271 0.325921 54.0715 -0.463699 55.3587 0.281165L147.09 53.2975C148.368 54.0392 149.422 56.034 149.422 57.7507V128.784C149.422 130.501 148.378 131.291 147.09 130.546Z" fill="#C4C7D6"/>
<path d="M147.563 131.278L148.579 130.693L148.141 127.675L147.563 131.278Z" fill="#C4C7D6"/>
<path d="M52.8509 0.715934L53.8506 0.140503L55.2879 0.958894C55.2879 0.958894 53.758 1.19226 53.7197 1.18587C53.6813 1.17948 52.8509 0.715934 52.8509 0.715934Z" fill="#B1B4C4"/>
<path d="M146.25 131.032L54.5027 78.0026C53.2251 77.261 52.1743 75.2661 52.1743 73.5462V2.52846C52.1743 0.81176 53.2188 0.0221413 54.5027 0.767005L146.25 53.7834C147.528 54.525 148.579 56.5199 148.579 58.2398V129.27C148.579 130.987 147.538 131.777 146.25 131.032Z" fill="#E4E7F2"/>
<path d="M146.087 131.125L54.3428 78.1082C53.0653 77.3633 52.0112 75.3685 52.0112 73.6518V2.62124C52.0112 0.904534 53.0557 0.114915 54.3428 0.859778L146.087 53.8762C147.365 54.6178 148.419 56.6127 148.419 58.3294V129.363C148.419 131.07 147.374 131.869 146.087 131.125Z" fill="#D6D8E5"/>
<path d="M147.157 126.806L53.1768 72.4977L53.2247 2.90574C53.2247 2.19285 53.7261 1.90513 54.3426 2.26638L146.087 55.2764C146.412 55.4889 146.683 55.775 146.877 56.1115C147.071 56.4481 147.183 56.8256 147.205 57.2136L147.157 126.806Z" fill="white"/>
<path d="M66.442 25.2709L57.914 20.3349C57.7663 20.2284 57.6455 20.0889 57.5612 19.9273C57.4769 19.7658 57.4315 19.5869 57.4285 19.4047V9.70545C57.4285 9.34741 57.6457 9.18437 57.914 9.33781L66.442 14.2769C66.59 14.3824 66.7111 14.5213 66.7954 14.6824C66.8798 14.8435 66.925 15.0222 66.9275 15.204V24.9032C66.9275 25.2549 66.7103 25.4275 66.442 25.2709Z" fill="#E9EAF2"/>
<path d="M78.2847 32.1153L69.7312 27.173C69.5834 27.0665 69.4626 26.9269 69.3784 26.7654C69.2941 26.6039 69.2486 26.4249 69.2457 26.2428V16.5499C69.2457 16.1919 69.4629 16.0288 69.7312 16.1823L78.2751 21.1214C78.4262 21.2268 78.5499 21.3668 78.636 21.5297C78.7221 21.6926 78.7681 21.8738 78.7702 22.0581V31.7477C78.7702 32.1058 78.553 32.288 78.2847 32.1153Z" fill="#E9EAF2"/>
<path d="M89.8542 38.7935L81.2942 33.8543C81.1462 33.7489 81.0251 33.6099 80.9408 33.4489C80.8564 33.2878 80.8112 33.1091 80.8087 32.9273V23.228C80.8087 22.87 81.0259 22.7038 81.2942 22.8604L89.8542 27.8123C90.0022 27.9178 90.1233 28.0567 90.2076 28.2178C90.292 28.3789 90.3372 28.5576 90.3396 28.7394V38.4258C90.3237 38.7839 90.1065 38.9469 89.8542 38.7935Z" fill="#E9EAF2"/>
<path d="M66.442 38.9598L57.914 34.0239C57.7663 33.9174 57.6455 33.7778 57.5612 33.6163C57.4769 33.4548 57.4315 33.2758 57.4285 33.0936V23.3944C57.4285 23.0364 57.6457 22.8733 57.914 23.0268L66.442 27.9627C66.5897 28.0692 66.7105 28.2088 66.7948 28.3703C66.8791 28.5318 66.9245 28.7108 66.9275 28.893V38.5922C66.9275 38.9502 66.7103 39.1165 66.442 38.9598Z" fill="#E9EAF2"/>
<path d="M78.2847 45.8041L69.7312 40.8681C69.5834 40.7616 69.4626 40.6221 69.3784 40.4605C69.2941 40.299 69.2486 40.1201 69.2457 39.9379V30.2387C69.2457 29.8806 69.4629 29.7176 69.7312 29.871L78.2751 34.8069C78.4228 34.9135 78.5436 35.053 78.6279 35.2145C78.7122 35.376 78.7576 35.555 78.7606 35.7372V45.4364C78.7702 45.7945 78.553 45.9607 78.2847 45.8041Z" fill="#E9EAF2"/>
<path d="M79.4509 45.1616L70.9069 40.2225C70.7589 40.117 70.6378 39.9781 70.5535 39.817C70.4691 39.656 70.4239 39.4773 70.4214 39.2954V29.5962C70.4214 29.2382 70.6386 29.0719 70.9069 29.2286L79.4509 34.1645C79.5986 34.271 79.7194 34.4106 79.8037 34.5721C79.888 34.7336 79.9334 34.9126 79.9364 35.0948V44.794C79.9523 45.152 79.7192 45.3151 79.4509 45.1616Z" fill="#136FFB"/>
<path d="M89.8542 52.4792L81.2942 47.5432C81.1462 47.4378 81.0251 47.2989 80.9408 47.1378C80.8564 46.9767 80.8112 46.798 80.8087 46.6162V36.9137C80.8087 36.5589 81.0259 36.3927 81.2942 36.5493L89.8542 41.4852C90.0022 41.5907 90.1233 41.7296 90.2076 41.8907C90.292 42.0518 90.3372 42.2305 90.3396 42.4123V52.1083C90.3237 52.4696 90.1065 52.6358 89.8542 52.4792Z" fill="#E9EAF2"/>
<path d="M66.442 52.9363L57.914 48.0004C57.766 47.8949 57.6449 47.756 57.5606 47.5949C57.4762 47.4338 57.431 47.2551 57.4285 47.0733V37.3709C57.4285 37.0161 57.6457 36.8498 57.914 37.0065L66.442 41.9424C66.59 42.0479 66.7111 42.1868 66.7954 42.3478C66.8798 42.5089 66.925 42.6876 66.9275 42.8695V52.5719C66.9275 52.9267 66.7103 53.0929 66.442 52.9363Z" fill="#E9EAF2"/>
<path d="M89.854 74.2815L57.914 55.8262C57.7663 55.7197 57.6455 55.5801 57.5612 55.4186C57.4769 55.2571 57.4315 55.0781 57.4285 54.8959V52.6581C57.4285 52.3001 57.6457 52.1338 57.914 52.2905L89.854 70.749C90.002 70.8545 90.1231 70.9934 90.2075 71.1545C90.2918 71.3156 90.337 71.4943 90.3395 71.6761V73.9139C90.3235 74.2719 90.1063 74.4382 89.854 74.2815Z" fill="#E9EAF2"/>
<path d="M81.6357 74.8059L58.0416 61.1842C57.8936 61.0787 57.7725 60.9398 57.6882 60.7787C57.6038 60.6176 57.5586 60.4389 57.5562 60.2571V59.1414C57.5562 58.7833 57.7733 58.6171 58.0416 58.7737L81.6357 72.4051C81.7834 72.5116 81.9042 72.6512 81.9885 72.8127C82.0728 72.9742 82.1182 73.1532 82.1212 73.3353V74.4447C82.1212 74.8059 81.904 74.9721 81.6357 74.8059Z" fill="#E9EAF2"/>
<path d="M81.6357 79.0256L58.0416 65.3911C57.8936 65.2856 57.7725 65.1467 57.6882 64.9857C57.6038 64.8246 57.5586 64.6459 57.5562 64.464V63.3547C57.5562 62.9967 57.7733 62.8337 58.0416 62.9871L81.6357 76.6184C81.7834 76.7249 81.9042 76.8645 81.9885 77.026C82.0728 77.1875 82.1182 77.3665 82.1212 77.5487V78.658C82.1212 79.016 81.904 79.1791 81.6357 79.0256Z" fill="#E9EAF2"/>
<path d="M77.1833 80.6625L58.0416 69.5982C57.8936 69.4927 57.7725 69.3538 57.6882 69.1928C57.6038 69.0317 57.5586 68.853 57.5562 68.6711V67.5618C57.5562 67.2038 57.7733 67.0408 58.0416 67.1942L77.1833 78.2553C77.331 78.3618 77.4518 78.5013 77.5361 78.6629C77.6204 78.8244 77.6658 79.0033 77.6688 79.1855V80.2948C77.6688 80.6529 77.4516 80.8159 77.1833 80.6625Z" fill="#136FFB"/>
<path d="M142.43 104.856L96.3181 78.2201C96.1701 78.1146 96.049 77.9757 95.9646 77.8146C95.8803 77.6536 95.8351 77.4749 95.8326 77.293V75.0552C95.8326 74.6972 96.0498 74.5342 96.3181 74.6876L142.43 101.34C142.578 101.445 142.699 101.584 142.783 101.745C142.868 101.906 142.913 102.085 142.915 102.267V104.505C142.915 104.856 142.698 105.022 142.43 104.856Z" fill="#E9EAF2"/>
<path d="M137.885 107.516L96.4656 83.578C96.3176 83.4725 96.1965 83.3336 96.1121 83.1726C96.0278 83.0115 95.9825 82.8328 95.9801 82.6509V81.5416C95.9801 81.1836 96.1973 81.0205 96.4656 81.174L137.885 105.109C138.033 105.215 138.154 105.355 138.238 105.516C138.322 105.678 138.368 105.857 138.371 106.039V107.148C138.371 107.506 138.154 107.669 137.885 107.516Z" fill="#E9EAF2"/>
<path d="M137.885 111.723L96.4656 87.7882C96.3179 87.6817 96.197 87.5422 96.1128 87.3807C96.0285 87.2191 95.983 87.0402 95.9801 86.858V85.7487C95.9801 85.3906 96.1973 85.2276 96.4656 85.381L137.885 109.332C138.033 109.437 138.154 109.576 138.239 109.737C138.323 109.898 138.368 110.077 138.371 110.259V111.368C138.371 111.713 138.154 111.889 137.885 111.723Z" fill="#E9EAF2"/>
<path d="M130.207 111.493L96.4656 91.992C96.3179 91.8855 96.197 91.7459 96.1128 91.5844C96.0285 91.4229 95.983 91.244 95.9801 91.0618V89.9525C95.9801 89.5944 96.1973 89.4314 96.4656 89.5848L130.207 109.086C130.354 109.192 130.475 109.331 130.559 109.492C130.644 109.652 130.689 109.831 130.692 110.013V111.122C130.692 111.483 130.472 111.646 130.207 111.493Z" fill="#136FFB"/>
<path d="M78.2847 59.7808L69.7312 54.8449C69.5831 54.7394 69.4621 54.6005 69.3777 54.4394C69.2934 54.2783 69.2481 54.0996 69.2457 53.9178V44.2154C69.2457 43.8605 69.4629 43.6943 69.7312 43.8509L78.2751 48.7869C78.4231 48.8923 78.5442 49.0313 78.6285 49.1923C78.7129 49.3534 78.7581 49.5321 78.7606 49.7139V59.4164C78.7702 59.7808 78.553 59.9374 78.2847 59.7808Z" fill="#E9EAF2"/>
<path d="M89.8542 66.459L81.2942 61.5199C81.1462 61.4144 81.0251 61.2755 80.9408 61.1144C80.8564 60.9533 80.8112 60.7746 80.8087 60.5928V50.8936C80.8087 50.5355 81.0259 50.3693 81.2942 50.5259L89.8542 55.4619C90.0019 55.5684 90.1227 55.708 90.207 55.8695C90.2913 56.031 90.3367 56.21 90.3396 56.3921V66.0914C90.3237 66.4494 90.1065 66.6124 89.8542 66.459Z" fill="#E9EAF2"/>
<path d="M142.43 96.8641L96.3181 70.2025C96.1701 70.097 96.049 69.9581 95.9646 69.797C95.8803 69.6359 95.8351 69.4572 95.8326 69.2754V54.0776C95.8326 53.7196 96.0498 53.5533 96.3181 53.71L142.43 80.3556C142.578 80.4621 142.698 80.6017 142.783 80.7632C142.867 80.9247 142.912 81.1037 142.915 81.2859V96.4837C142.915 96.8417 142.698 97.0047 142.43 96.8641Z" fill="#E9EAF2"/>
<path d="M102.63 51.7408C98.7141 49.4774 95.5265 43.9565 95.5265 39.4297C95.5265 34.903 98.7205 33.0648 102.63 35.325C106.539 37.5852 109.73 43.1125 109.73 47.636C109.73 52.1596 106.543 54.0041 102.63 51.7408ZM102.63 37.697C99.8448 36.0986 97.5802 37.3997 97.5802 40.6158C97.5802 43.8318 99.8448 47.7607 102.63 49.3687C105.415 50.9767 107.68 49.6692 107.68 46.45C107.68 43.2308 105.409 39.321 102.63 37.697Z" fill="#E9EAF2"/>
<path d="M102.63 51.7408C98.7141 49.4774 95.5265 43.9565 95.5265 39.4297C95.5265 34.903 98.7205 33.0648 102.63 35.325V37.697C99.8448 36.0986 97.5802 37.3997 97.5802 40.6158C97.5802 43.8318 99.8448 47.7607 102.63 49.3687C105.415 50.9767 107.68 49.6692 107.68 46.45L109.73 47.636C109.727 52.1627 106.543 54.0041 102.63 51.7408Z" fill="#136FFB"/>
<path d="M119.194 61.3184C115.278 59.0551 112.094 53.5309 112.094 49.0074C112.094 44.4839 115.288 42.6393 119.194 44.9027C123.1 47.166 126.294 52.687 126.294 57.2137C126.294 61.7404 123.11 63.5818 119.194 61.3184ZM119.194 47.2747C116.409 45.6763 114.144 46.9742 114.144 50.1934C114.144 53.4126 116.409 57.3352 119.194 58.9464C121.979 60.5576 124.244 59.2469 124.244 56.0277C124.244 52.8084 121.979 48.8827 119.194 47.2747Z" fill="#E9EAF2"/>
<path d="M119.194 61.3184C115.278 59.0551 112.094 53.5309 112.094 49.0074C112.094 44.4839 115.288 42.6393 119.194 44.9027V47.2747C116.409 45.6763 114.144 46.9742 114.144 50.1934C114.144 53.4126 116.409 57.3352 119.194 58.9464C120.229 59.5442 121.222 59.7584 122.069 59.5857L123.241 62.2103C122.05 62.4629 120.651 62.1592 119.194 61.3184Z" fill="#136FFB"/>
<path d="M135.761 70.8898C131.845 68.6264 128.661 63.1023 128.661 58.5788C128.661 54.0552 131.855 52.2107 135.761 54.474C139.667 56.7374 142.874 62.2583 142.874 66.785C142.874 71.3118 139.68 73.1531 135.761 70.8898ZM135.761 56.8461C132.979 55.2477 130.711 56.5456 130.711 59.7648C130.711 62.984 132.979 66.9065 135.761 68.5177C138.543 70.1289 140.811 68.8182 140.811 65.599C140.811 62.3798 138.546 58.4541 135.761 56.8461Z" fill="#E9EAF2"/>
<path d="M129.581 63.1567C129.003 61.6981 128.691 60.1475 128.661 58.5788C128.661 54.0521 131.855 52.2107 135.761 54.474V56.8461C132.979 55.2477 130.712 56.5456 130.712 59.7648C130.736 60.8797 130.961 61.9811 131.376 63.016L129.581 63.1567Z" fill="#136FFB"/>
<path d="M25.5109 34.8455L7.83531 24.6156L7.76824 24.5772C7.26997 24.3119 6.59604 24.3598 5.85184 24.7882C4.3283 25.6705 3.09222 27.8124 3.09222 29.5835C3.09222 30.4946 3.42759 31.1243 3.96099 31.3961L21.8761 41.7443L25.5109 34.8455Z" fill="#1AB471"/>
<path d="M25.6627 39.4264C26.7405 37.5579 26.7411 35.5387 25.6641 34.9164C24.5871 34.294 22.8403 35.3042 21.7625 37.1726C20.6847 39.0411 20.684 41.0603 21.761 41.6827C22.838 42.305 24.5849 41.2949 25.6627 39.4264Z" fill="#259CA5"/>
<path d="M31.6084 45.9513L22.4001 40.6317V36.8978L31.6084 42.2206V45.9513Z" fill="#D6D8E5"/>
<path d="M31.6084 42.2271L22.4001 36.9075L24.5209 35.6799L33.7292 41.0027L31.6084 42.2271Z" fill="#C4C7D6"/>
<path d="M54.1429 66.6369C59.6853 63.4341 59.6852 53.0487 54.1427 43.4403C48.6002 33.8319 39.6142 28.6391 34.0718 31.8418C28.5294 35.0445 28.5295 45.43 34.072 55.0384C39.6145 64.6468 48.6005 69.8396 54.1429 66.6369Z" fill="url(#paint0_linear)"/>
<path d="M46.0446 68.0383C36.5425 62.5461 28.7971 49.1418 28.7971 38.1574C28.7971 27.1731 36.5297 22.7071 46.0446 28.1993C55.5596 33.6914 63.2922 47.0958 63.2922 58.0769C63.2922 69.0581 55.55 73.5272 46.0446 68.0383ZM46.0446 34.4906C39.5417 30.7311 34.2524 33.7873 34.2524 41.3031C34.2524 48.8189 39.5417 57.9906 46.0446 61.7629C52.5476 65.5351 57.8369 62.463 57.8369 54.9504C57.8369 47.4378 52.5476 38.2469 46.0446 34.4906Z" fill="#22D587"/>
<path d="M44.1092 69.1572C34.6039 63.665 26.8616 50.2606 26.8616 39.2763C26.8616 28.292 34.5911 23.826 44.1092 29.3181C53.6273 34.8103 61.3568 48.2147 61.3568 59.1958C61.3568 70.1769 53.6114 74.6493 44.1092 69.1572ZM44.1092 35.6095C37.6062 31.85 32.317 34.9062 32.317 42.422C32.317 49.9378 37.6062 59.1095 44.1092 62.8818C50.6122 66.654 55.9015 63.5819 55.9015 56.0693C55.9015 48.5567 50.6122 39.3658 44.1092 35.6095Z" fill="#1AB471"/>
</g>
<defs>
<linearGradient id="paint0_linear" x1="59.9789" y1="58.4089" x2="28.2229" y2="40.0899" gradientUnits="userSpaceOnUse">
<stop stop-color="white" stop-opacity="0.4"/>
<stop offset="0.89" stop-color="white" stop-opacity="0"/>
</linearGradient>
<clipPath id="clip0">
<rect width="149" height="155.012" fill="white" transform="translate(0.421875)"/>
</clipPath>
</defs>
</svg>
