<svg width="142" height="191" viewBox="0 0 142 191" fill="none" xmlns="http://www.w3.org/2000/svg">
<path opacity="0.4" d="M72.4911 147.839L50.0551 134.884C48.4343 133.948 48.6393 132.316 50.5077 131.236L65.0447 122.846L93.341 139.182L78.8041 147.576C76.9319 148.655 74.108 148.771 72.4911 147.839Z" fill="#D6D8E5"/>
<path d="M74.1274 146.876L51.6915 133.917C50.0745 132.985 50.2757 131.352 52.1441 130.273L66.6849 121.883L94.9813 138.218L80.4598 146.609C78.5721 147.692 75.7444 147.808 74.1274 146.876Z" fill="#B1B4C4"/>
<path d="M94.9776 138.218V137.364L93.6701 138.118L94.9776 138.218Z" fill="#B1B4C4"/>
<path d="M50.597 132.374V131.503L51.9393 132.06L50.597 132.374Z" fill="#B1B4C4"/>
<path d="M74.1274 146.017L51.6915 133.062C50.0745 132.126 50.2757 130.497 52.1441 129.418L66.6849 121.024L94.9813 137.364L80.4598 145.754C78.5721 146.833 75.7444 146.953 74.1274 146.017Z" fill="#D6D8E5"/>
<path d="M66.7551 121.063L63.2543 109.442L91.8602 125.852L94.978 137.364L66.7551 121.063Z" fill="#9EA1AF"/>
<path d="M94.1496 137.839L94.9774 137.364L93.7434 136.377L94.1496 137.839Z" fill="#9EA1AF"/>
<path d="M65.8537 121.5L62.353 109.88L90.9588 126.289L94.1463 137.839L65.8537 121.5Z" fill="#B1B4C4"/>
<path d="M138.484 157.44L27.7397 93.4936C26.1924 92.5961 24.9275 90.1901 24.9275 88.1205V2.46545C24.9275 0.392056 26.1885 -0.559538 27.7397 0.3379L138.484 64.2688C140.032 65.1662 141.297 67.5723 141.297 69.6418V155.297C141.285 157.366 140.032 158.318 138.484 157.44Z" fill="#C4C7D6"/>
<path d="M139.041 158.306L140.268 157.599L139.738 153.962L139.041 158.306Z" fill="#C4C7D6"/>
<path d="M24.7296 0.86782L25.9365 0.167664L27.6733 1.16181C27.6733 1.16181 25.8243 1.44419 25.7779 1.43259C25.7314 1.42098 24.7296 0.86782 24.7296 0.86782Z" fill="#B1B4C4"/>
<path d="M137.455 158.009L26.7258 94.0776C25.1785 93.1802 23.9136 90.778 23.9136 88.7046V3.04954C23.9136 0.980011 25.1708 0.028417 26.7258 0.925855L137.455 64.8567C139.002 65.7542 140.267 68.1602 140.267 70.2298V155.893C140.267 157.954 139.01 158.906 137.455 158.009Z" fill="#E4E7F2"/>
<path d="M137.262 158.121L26.5286 94.1898C24.9813 93.2924 23.7164 90.8863 23.7164 88.8168V3.16172C23.7164 1.09219 24.9774 0.1406 26.5286 1.03804L137.262 64.9883C138.809 65.8818 140.074 68.2879 140.074 70.3613V155.993C140.074 158.067 138.813 159.018 137.262 158.121Z" fill="#D6D8E5"/>
<path d="M138.55 152.91L25.1436 87.4242L25.1822 3.50601C25.1822 2.64725 25.7857 2.29911 26.5284 2.73235L137.261 66.6594C137.652 66.914 137.977 67.2566 138.211 67.6597C138.444 68.0628 138.58 68.5151 138.608 68.9803L138.55 152.91Z" fill="white"/>
<path d="M69.9075 39.4887L33.5767 18.5149C33.409 18.3941 33.272 18.2356 33.1766 18.0522C33.0812 17.8688 33.0301 17.6656 33.0274 17.4589V14.9252C33.0274 14.5384 33.2711 14.3333 33.5767 14.5074L69.9075 35.4812C70.0745 35.6027 70.2111 35.7613 70.3064 35.9445C70.4017 36.1278 70.4532 36.3307 70.4568 36.5372V39.0709C70.4568 39.4771 70.2092 39.6666 69.9075 39.4887Z" fill="#E9EAF2"/>
<path d="M60.5772 40.096L33.743 24.6035C33.5747 24.4839 33.4369 24.3263 33.3408 24.1435C33.2447 23.9607 33.193 23.7579 33.1899 23.5514V22.2903C33.1899 21.9035 33.4374 21.6946 33.743 21.8726L60.5772 37.365C60.7432 37.4861 60.8786 37.6442 60.9726 37.8269C61.0666 38.0096 61.1167 38.2117 61.1188 38.4171V39.6782C61.1188 40.0844 60.879 40.2739 60.5772 40.096Z" fill="#E9EAF2"/>
<path d="M60.5772 44.8733L33.743 29.4002C33.5747 29.2806 33.4369 29.123 33.3408 28.9402C33.2447 28.7574 33.193 28.5546 33.1899 28.3481V27.0793C33.1899 26.6924 33.4374 26.4836 33.743 26.6615L60.5772 42.1655C60.7446 42.2858 60.8815 42.4436 60.9769 42.6263C61.0723 42.809 61.1235 43.0116 61.1265 43.2177V44.4787C61.1188 44.8733 60.879 45.0551 60.5772 44.8733Z" fill="#E9EAF2"/>
<path d="M55.5137 46.7378L33.743 34.1659C33.5747 34.0463 33.4369 33.8887 33.3408 33.7059C33.2447 33.5231 33.193 33.3203 33.1899 33.1138V31.8527C33.1899 31.4659 33.4374 31.257 33.743 31.4349L55.5137 44.0029C55.6819 44.1236 55.8195 44.282 55.9155 44.4653C56.0116 44.6487 56.0634 44.852 56.0668 45.059V46.32C56.0668 46.7262 55.8193 46.9119 55.5137 46.7378Z" fill="#016AFE"/>
<path d="M69.9075 89.6833L33.5767 68.7095C33.409 68.5887 33.272 68.4302 33.1766 68.2468C33.0812 68.0634 33.0301 67.8602 33.0274 67.6535V65.1198C33.0274 64.7136 33.2711 64.5279 33.5767 64.702L69.9075 85.6758C70.0745 85.7973 70.2111 85.9559 70.3064 86.1392C70.4017 86.3224 70.4532 86.5253 70.4568 86.7318V89.2655C70.4568 89.6717 70.2092 89.8574 69.9075 89.6833Z" fill="#E9EAF2"/>
<path d="M60.5772 90.2906L33.743 74.8176C33.5748 74.6969 33.4372 74.5385 33.3412 74.3552C33.2451 74.1718 33.1933 73.9685 33.1899 73.7615V72.5005C33.1899 72.0943 33.4374 71.9086 33.743 72.0866L60.5772 87.5596C60.7443 87.6811 60.8808 87.8398 60.9761 88.023C61.0714 88.2063 61.1229 88.4091 61.1265 88.6157V89.8767C61.1188 90.279 60.879 90.4647 60.5772 90.2906Z" fill="#E9EAF2"/>
<path d="M60.5772 95.0718L33.743 79.5794C33.5751 79.4593 33.4377 79.3016 33.3416 79.1189C33.2456 78.9362 33.1936 78.7336 33.1899 78.5272V77.2662C33.1899 76.8794 33.4374 76.6743 33.743 76.8523L60.5772 92.3253C60.7443 92.4469 60.8808 92.6055 60.9761 92.7887C61.0714 92.972 61.1229 93.1749 61.1265 93.3814V94.6424C61.1188 95.0602 60.879 95.2459 60.5772 95.0718Z" fill="#E9EAF2"/>
<path d="M55.5137 96.9286L33.743 84.3606C33.5746 84.2401 33.4368 84.0818 33.3408 83.8984C33.2447 83.715 33.193 83.5116 33.1899 83.3045V82.0435C33.1899 81.6373 33.4374 81.4516 33.743 81.6296L55.5137 94.1976C55.6819 94.3183 55.8195 94.4766 55.9155 94.66C56.0116 94.8434 56.0634 95.0467 56.0668 95.2536V96.5147C56.0668 96.9209 55.8193 97.0949 55.5137 96.9286Z" fill="#22D587"/>
<path d="M79.6282 95.9113C79.6282 95.9113 83.6357 99.2766 89.4226 94.6811C93.5539 91.2925 97.2481 93.2267 99.306 94.3872C101.364 95.5476 104.335 96.2594 109.994 106.479C109.994 106.479 111.835 109.682 114.876 111.438C117.916 113.195 119.378 112.336 121.769 108.731C124.16 105.125 125.726 101.133 130.121 103.741V139.982L79.2336 110.634V95.6753L79.6282 95.9113Z" fill="#F5F6FF"/>
<path d="M68.5688 80.5465L33.7543 60.4315C33.5861 60.3108 33.4485 60.1525 33.3525 59.9691C33.2564 59.7857 33.2046 59.5824 33.2012 59.3755V39.2875C33.2012 38.9007 33.4487 38.6957 33.7543 38.8698L68.5688 58.9848C68.7369 59.1054 68.8746 59.2638 68.9706 59.4472C69.0667 59.6305 69.1185 59.8338 69.1219 60.0408V80.1365C69.1219 80.5349 68.8744 80.7206 68.5688 80.5465Z" fill="#E9EAF2"/>
<path d="M79.2336 95.068V110.626L130.121 140.002V103.76" stroke="#E9EAF2" stroke-width="0.31" stroke-miterlimit="10"/>
<path d="M99.233 94.5689V122.134" stroke="#E9EAF2" stroke-width="0.31" stroke-miterlimit="10"/>
<path d="M114.803 112.003V131.12" stroke="#E9EAF2" stroke-width="0.31" stroke-miterlimit="10"/>
<path d="M79.2336 95.6753C88.2621 101.273 89.5387 88.6195 99.3757 94.2982C109.213 99.9768 107.855 107.377 115.116 111.57C122.376 115.763 122.547 99.3849 130.121 103.76" stroke="#E9EAF2" stroke-width="1.53" stroke-miterlimit="10"/>
<path d="M100.08 96.0443C100.548 95.774 100.547 94.8965 100.078 94.0843C99.6091 93.2721 98.8495 92.8327 98.3814 93.103C97.9133 93.3732 97.914 94.2508 98.3829 95.063C98.8518 95.8752 99.6114 96.3145 100.08 96.0443Z" fill="#22D587"/>
<path d="M131.68 105.655C132.15 105.385 132.151 104.504 131.682 103.688C131.214 102.872 130.452 102.43 129.982 102.7C129.512 102.971 129.511 103.851 129.98 104.667C130.449 105.483 131.21 105.925 131.68 105.655Z" fill="#22D587"/>
<path d="M116.297 113.591C116.767 113.32 116.768 112.44 116.299 111.624C115.83 110.808 115.069 110.366 114.599 110.636C114.129 110.906 114.127 111.787 114.596 112.603C115.065 113.418 115.827 113.861 116.297 113.591Z" fill="#016AFE"/>
<path d="M80.0831 97.1494C80.5512 96.8792 80.5505 96.0017 80.0816 95.1894C79.6127 94.3772 78.8531 93.9379 78.385 94.2081C77.9169 94.4784 77.9176 95.3559 78.3865 96.1681C78.8554 96.9803 79.615 97.4197 80.0831 97.1494Z" fill="#016AFE"/>
<path d="M80.669 68.9455L78.584 67.7425C78.4158 67.6218 78.2782 67.4635 78.1821 67.2801C78.0861 67.0967 78.0343 66.8934 78.0308 66.6864V56.6289C78.0308 56.2228 78.2784 56.0371 78.584 56.2112L80.669 57.4181C80.8369 57.5345 80.9753 57.6885 81.0734 57.8678C81.1714 58.0471 81.2263 58.2467 81.2337 58.4509V68.5277C81.2337 68.9339 80.9746 69.1196 80.669 68.9455Z" fill="#E9EAF2"/>
<path d="M85.4884 71.7191L83.4034 70.5122C83.2351 70.3925 83.0973 70.2349 83.0012 70.0521C82.9051 69.8693 82.8534 69.6665 82.8503 69.46V48.9582C82.8503 48.5713 83.0978 48.3625 83.4034 48.5404L85.4884 49.7473C85.6566 49.868 85.7943 50.0263 85.8903 50.2097C85.9864 50.3931 86.0382 50.5964 86.0416 50.8033V71.3052C86.0261 71.7075 85.7786 71.8931 85.4884 71.7191Z" fill="#22D587"/>
<path d="M95.0783 77.2623L92.9933 76.0592C92.8244 75.9392 92.6863 75.781 92.5902 75.5975C92.4941 75.414 92.4426 75.2104 92.4401 75.0032V56.4974C92.4401 56.0912 92.6877 55.9056 92.9933 56.0796L95.0783 57.2827C95.2465 57.4033 95.3841 57.5617 95.4802 57.7451C95.5762 57.9284 95.628 58.1317 95.6314 58.3387V76.8484C95.6314 77.2545 95.3839 77.4402 95.0783 77.2623Z" fill="#E9EAF2"/>
<path d="M99.8826 80.0359L97.7976 78.8329C97.6294 78.7122 97.4918 78.5538 97.3957 78.3705C97.2997 78.1871 97.2479 77.9838 97.2444 77.7768V62.443C97.2444 62.0562 97.492 61.8512 97.7976 62.0252L99.8826 63.2321C100.051 63.3518 100.189 63.5094 100.285 63.6922C100.381 63.8749 100.433 64.0778 100.436 64.2843V79.6181C100.436 80.0282 100.188 80.2138 99.8826 80.0359Z" fill="#016AFE"/>
<path d="M109.449 85.5597L107.36 84.3567C107.192 84.2358 107.055 84.0773 106.96 83.8939C106.865 83.7105 106.814 83.5073 106.811 83.3006V75.7227C106.811 75.3127 107.055 75.127 107.36 75.3049L109.449 76.508C109.616 76.6295 109.753 76.7881 109.848 76.9713C109.943 77.1546 109.995 77.3575 109.998 77.564V85.1419C109.998 85.5481 109.751 85.7338 109.449 85.5597Z" fill="#E9EAF2"/>
<path d="M114.249 88.3333L112.18 87.1264C112.011 87.0068 111.874 86.8492 111.778 86.6664C111.681 86.4836 111.63 86.2807 111.627 86.0743V60.3C111.627 59.8899 111.874 59.7043 112.18 59.8822L114.265 61.0852C114.433 61.2057 114.571 61.364 114.667 61.5474C114.763 61.7308 114.815 61.9342 114.818 62.1413V87.9156C114.802 88.3217 114.555 88.5074 114.249 88.3333Z" fill="#22D587"/>
<path d="M125.966 95.0989L123.881 93.892C123.713 93.7724 123.575 93.6148 123.479 93.432C123.383 93.2492 123.331 93.0463 123.328 92.8398V85.258C123.328 84.8519 123.576 84.6662 123.881 84.8403L125.966 86.0472C126.135 86.1672 126.273 86.3254 126.369 86.5089C126.465 86.6924 126.517 86.896 126.519 87.1032V94.6811C126.519 95.0873 126.272 95.273 125.966 95.0989Z" fill="#E9EAF2"/>
<path d="M130.771 97.8686L128.686 96.6617C128.517 96.5417 128.379 96.3835 128.283 96.2C128.186 96.0164 128.135 95.8128 128.132 95.6057V85.5482C128.132 85.142 128.38 84.9563 128.686 85.1304L130.771 86.3334C130.939 86.4541 131.076 86.6124 131.172 86.7958C131.269 86.9792 131.32 87.1825 131.324 87.3895V97.4663C131.324 97.8686 131.076 98.0465 130.771 97.8686Z" fill="#016AFE"/>
<path opacity="0.4" d="M18.5899 190.019L1.32191 180.062C-0.635435 178.928 -0.391735 176.967 1.8712 175.652L10.6367 170.588C12.8958 169.285 16.3037 169.13 18.2727 170.29L35.5406 180.263C37.498 181.392 37.2543 183.357 34.9913 184.669L26.2258 189.732C23.9668 191.017 20.5588 191.179 18.5899 190.019Z" fill="#D6D8E5"/>
<path d="M44.5418 177.59V153.487L7.66945 149.336V173.59C7.64624 174.333 8.05628 175.041 8.98466 175.567L26.2526 185.539C28.21 186.669 31.6295 186.526 33.8886 185.222L42.6541 180.158C43.9267 179.423 44.5611 178.476 44.5224 177.59H44.5418Z" fill="#D6D8E5"/>
<path d="M44.5186 156.117V153.487H41.6831L25.9354 144.392C23.9781 143.259 20.5585 143.402 18.2995 144.706L9.53395 149.789C9.37806 149.877 9.22698 149.974 9.08137 150.079L7.66945 149.355C7.66945 149.355 7.66945 152.137 7.66945 152.23C7.64624 152.965 8.05628 153.672 8.98466 154.198L26.2526 164.167C28.21 165.297 31.6295 165.153 33.8886 163.85L42.6541 158.79C43.9654 158.016 44.5882 157.049 44.5147 156.136L44.5186 156.117Z" fill="#EDF0F9"/>
<path d="M26.2531 161.281L8.98518 151.313C7.02783 150.183 7.27153 148.218 9.53447 146.903L18.3 141.843C20.559 140.536 23.9786 140.396 25.9359 141.526L43.2039 151.495C45.1612 152.624 44.9175 154.589 42.6546 155.904L33.8891 160.964C31.63 162.272 28.2105 162.411 26.2531 161.281Z" fill="#E2E5F2"/>
<path d="M22.3617 147.673V146.713H21.7737L21.5919 146.597C21.0136 146.304 20.3741 146.151 19.7255 146.151C19.0769 146.151 18.4374 146.304 17.859 146.597C17.7485 146.662 17.6437 146.735 17.5457 146.818L17.0854 146.713V147.673C17.107 147.905 17.1901 148.127 17.326 148.317C17.462 148.507 17.6459 148.657 17.859 148.752C18.4374 149.046 19.0769 149.199 19.7255 149.199C20.3741 149.199 21.0136 149.046 21.5919 148.752C21.805 148.657 21.9889 148.507 22.1242 148.317C22.2596 148.128 22.3416 147.905 22.3617 147.673Z" fill="#6E48E5"/>
<path d="M19.7235 148.237C21.1806 148.237 22.3617 147.555 22.3617 146.713C22.3617 145.872 21.1806 145.189 19.7235 145.189C18.2665 145.189 17.0854 145.872 17.0854 146.713C17.0854 147.555 18.2665 148.237 19.7235 148.237Z" fill="#016AFE"/>
<path d="M28.9066 151.723C28.7627 152.045 28.5129 152.309 28.1987 152.469C27.6205 152.761 26.9818 152.913 26.3342 152.913C25.6865 152.913 25.0479 152.761 24.4697 152.469C24.1555 152.309 23.9057 152.045 23.7618 151.723C23.5684 151.228 23.8082 150.698 24.4697 150.311C25.0479 150.019 25.6865 149.867 26.3342 149.867C26.9818 149.867 27.6205 150.019 28.1987 150.311C28.864 150.678 29.1 151.208 28.9066 151.723Z" fill="#5E42D3"/>
<path d="M28.9068 151.723C28.7629 152.045 28.5131 152.309 28.1989 152.469C27.6206 152.761 26.982 152.913 26.3344 152.913C25.6867 152.913 25.0481 152.761 24.4699 152.469C24.2806 152.456 24.1036 152.371 23.9743 152.232C23.8451 152.093 23.7733 151.911 23.7733 151.721C23.7733 151.531 23.8451 151.348 23.9743 151.21C24.1036 151.071 24.2806 150.986 24.4699 150.972C25.0481 150.681 25.6867 150.529 26.3344 150.529C26.982 150.529 27.6206 150.681 28.1989 150.972C28.5137 151.134 28.7636 151.399 28.9068 151.723Z" fill="#22D587"/>
<path d="M35.1073 155.154V154.195H34.5193L34.3375 154.079C33.7592 153.785 33.1197 153.632 32.4711 153.632C31.8225 153.632 31.183 153.785 30.6046 154.079C30.4951 154.143 30.3903 154.215 30.2913 154.295L29.831 154.195V155.154C29.8526 155.386 29.9357 155.609 30.0716 155.798C30.2076 155.988 30.3915 156.138 30.6046 156.233C31.183 156.527 31.8225 156.68 32.4711 156.68C33.1197 156.68 33.7592 156.527 34.3375 156.233C34.5506 156.139 34.7345 155.989 34.8698 155.799C35.0052 155.609 35.0872 155.386 35.1073 155.154Z" fill="#6E48E5"/>
<path d="M32.4692 155.719C33.9262 155.719 35.1073 155.036 35.1073 154.195C35.1073 153.353 33.9262 152.671 32.4692 152.671C31.0121 152.671 29.831 153.353 29.831 154.195C29.831 155.036 31.0121 155.719 32.4692 155.719Z" fill="#016AFE"/>
<path d="M3.26824 143.797C3.1638 144.698 2.10776 148.589 2.31665 149.924C2.52553 151.259 6.2236 153.487 6.2236 153.487L6.73421 151.204L4.6995 149.208L5.24879 145.429L3.26824 143.797Z" fill="#FFCEA9"/>
<path d="M6.11115 139.963C5.75403 139.797 5.34815 139.767 4.9708 139.881C4.59346 139.994 4.271 140.242 4.06484 140.578C3.52328 141.476 2.96238 144.547 2.90436 145.073C2.90436 145.073 3.67801 146.122 4.80368 145.947L6.11115 139.963Z" fill="#EDEDED"/>
<path d="M10.3085 183.35C11.1088 183.57 11.9636 183.466 12.6875 183.06C13.26 183.079 16.3739 181.744 16.7956 182.862C17.1824 183.845 15.8169 184.75 15.0974 184.924C13.5269 185.311 12.3664 186.085 11.732 186.224C11.264 186.321 10.6528 186.386 10.2814 186.015C9.82883 185.574 9.86751 183.934 10.3085 183.35Z" fill="#38226D"/>
<path d="M11.7322 185.949C12.3666 185.818 13.5271 185.032 15.0976 184.653C15.7011 184.506 16.7417 183.849 16.8461 183.06C16.9854 183.961 15.7707 184.762 15.0976 184.924C13.5271 185.311 12.3666 186.085 11.7322 186.224C11.2642 186.321 10.653 186.386 10.2816 186.015C10.1799 185.906 10.108 185.773 10.0728 185.628C10.3048 185.808 10.5759 185.931 10.8642 185.987C11.1525 186.042 11.4498 186.03 11.7322 185.949Z" fill="#9C73FF"/>
<path d="M5.26442 181.083C6.06418 181.304 6.91899 181.201 7.6434 180.797C8.21591 180.797 11.326 179.481 11.7515 180.599C12.1383 181.578 10.7728 182.483 10.0533 182.661C8.48282 183.048 7.31847 183.822 6.68794 183.957C6.21601 184.054 5.60869 184.119 5.23347 183.752C4.78475 183.307 4.82343 181.667 5.26442 181.083Z" fill="#38226D"/>
<path d="M6.68762 183.686C7.31815 183.551 8.4825 182.77 10.053 182.387C10.6565 182.243 11.697 181.582 11.8015 180.797C11.9407 181.698 10.7261 182.495 10.053 182.661C8.4825 183.048 7.31815 183.822 6.68762 183.957C6.2157 184.054 5.60838 184.12 5.23315 183.752C5.13508 183.641 5.0648 183.509 5.02814 183.365C5.26091 183.544 5.53202 183.666 5.82003 183.721C6.10804 183.777 6.40506 183.765 6.68762 183.686Z" fill="#9C73FF"/>
<path d="M5.20254 172.631C5.33657 171.475 5.57611 170.335 5.91817 169.223C5.91817 169.223 5.70541 166.283 5.5971 163.494C5.47718 160.33 4.3786 157.545 5.24509 155.022L15.0047 157.193C15.0047 157.193 14.4168 169.807 14.2852 171.331C14.2144 172.52 14.0684 173.704 13.8481 174.874C13.4033 177.323 12.6876 183.149 12.6876 183.149C11.6587 183.748 10.3009 183.415 10.3009 183.415C10.3009 183.415 10.3783 176.066 10.444 174.286C10.5253 172.132 10.591 172.294 10.591 172.294L10.2661 166.929L10.0572 164.26C10.0572 164.26 9.78644 166.217 9.6085 167.969C9.45763 169.494 9.09015 170.875 8.67624 173.714C8.32036 176.178 7.74012 181.129 7.74012 181.129C6.70729 181.729 5.30698 181.23 5.30698 181.23C5.30698 181.23 4.92402 174.766 5.20254 172.631Z" fill="#016AFE"/>
<path d="M6.63358 140.014C7.38015 140.052 7.93332 140.242 8.02615 140.014C8.10364 139.63 8.15918 139.243 8.19249 138.853C8.10739 138.636 8.03389 138.404 8.03389 138.404C7.10164 137.832 6.80765 136.822 6.68386 135.646C6.47498 133.639 7.5581 131.882 9.56573 131.674C11.4534 131.476 12.846 132.803 13.2135 134.625C13.4147 135.522 13.8131 137.224 13.2754 138.702C12.9737 139.53 12.5868 140.188 12.2 140.315C11.8258 140.303 11.4525 140.269 11.0821 140.215C11.0821 140.215 10.9815 140.772 10.9119 141.128C10.8423 141.483 10.8693 141.677 11.5811 142.114C12.2929 142.551 10.5018 143.468 9.34137 143.379C8.18089 143.29 6.85794 142.586 6.49432 141.832C6.08042 140.984 6.11523 139.99 6.63358 140.014Z" fill="#FFCEA9"/>
<path d="M7.7013 140.118C7.49628 140.632 8.0185 141.278 9.41495 141.696C10.8114 142.114 10.939 141.572 10.939 141.572C11.8667 141.988 12.7706 142.454 13.6468 142.969C14.4862 143.557 14.8576 145.251 14.9698 148.114C15.1013 151.425 15.1129 156.338 15.0007 157.185C15.0007 157.185 13.4534 158.732 11.4303 158.581C9.40721 158.43 6.05729 156.647 5.24108 155.274C5.26429 152.369 5.6047 151.897 5.13277 150.226C4.05739 146.396 3.49263 144.81 4.01484 142.284C4.44422 140.184 5.04767 139.925 5.87935 139.944C6.4894 139.968 7.09764 140.027 7.7013 140.118Z" fill="#F4F4F4"/>
<path d="M18.1266 150.86C16.4787 151.274 16.0957 150.237 15.8791 149.379C15.353 147.297 15.0745 145.421 14.6838 144.242C14.2235 142.849 13.74 142.628 13.0669 142.358C12.2932 142.037 11.5892 142.71 11.8522 144.481C12.1768 146.537 12.6817 148.56 13.3609 150.527C13.5659 151.173 14.0223 152.322 14.7109 152.879C15.558 153.564 16.8384 153.537 18.7726 153.057C19.5965 152.848 20.5017 152.357 22.0606 151.63C22.4784 151.436 22.8033 151.305 23.6079 150.93C24.4158 150.569 25.1236 150.017 25.6697 149.321C26.0913 148.709 26.1455 148.423 26.0565 148.284C25.9676 148.145 25.7587 148.148 25.5343 148.408C25.2087 148.841 24.8077 149.212 24.3506 149.502C24.3506 149.502 24.869 148.965 25.1514 148.617C25.4036 148.307 25.6131 147.965 25.7741 147.599C25.9211 147.243 25.6155 146.76 25.3873 147.015C25.1591 147.27 25.043 147.526 24.6137 148.036C24.386 148.309 24.1262 148.553 23.84 148.764C24.1041 148.407 24.3383 148.029 24.5402 147.634C24.7223 147.325 24.8123 146.971 24.7993 146.613C24.7993 146.427 24.5247 146.207 24.2771 146.559C24.0381 147.042 23.742 147.495 23.3952 147.909C23.0083 148.295 22.6989 148.52 22.6911 148.412C22.6834 148.303 22.9155 148.09 23.0509 147.638C23.1863 147.185 23.0509 146.702 22.7994 146.651C22.548 146.601 22.5983 146.613 22.4126 147.038C22.1355 147.475 21.8861 147.928 21.666 148.396C21.5366 148.832 21.3045 149.23 20.9891 149.557C20.5829 149.99 19.6894 150.466 18.1266 150.86Z" fill="#FFCEA9"/>
<path d="M12.4551 142.071C13.5537 141.909 14.3312 142.404 14.8148 144.067C15.2983 145.731 15.6387 147.081 15.6387 147.081C15.2048 147.708 14.5474 148.145 13.8013 148.303C12.4861 148.624 12.0142 147.994 12.0142 147.994C12.0142 147.994 11.6505 146.253 11.4223 145.065C11.1941 143.878 11.0974 142.273 12.4551 142.071Z" fill="#EDEDED"/>
<path d="M13.1441 134.366C13.1441 134.366 14.8771 131.728 11.1172 131.19C8.40936 130.803 6.66477 132.544 6.47523 134.435C6.28181 136.242 7.39588 138.118 8.19661 138.861C8.98591 139.062 9.82175 138.961 10.5408 138.578C10.5868 138.087 10.6049 137.594 10.5949 137.101C10.5949 137.101 9.26038 134.316 13.1441 134.366Z" fill="#3A2C6D"/>
</svg>
