<svg width="604" height="178" viewBox="0 0 604 178" fill="none" xmlns="http://www.w3.org/2000/svg">
<rect width="604" height="178" fill="#E4E2E2"/>
<path d="M22.5176 178H45.7109L67.4395 51.6572L68.7822 44.0889L70.0029 51.5352L91.6094 178H114.681L136.287 0.265625H114.925L102.107 122.58L101.375 129.904L100.032 122.702L78.4258 0.265625H58.7725L37.2881 122.58L35.9453 129.904L35.2129 122.824L22.3955 0.265625H0.911133L22.5176 178Z" fill="url(#paint0_linear)"/>
<path d="M150.812 31.7812V32.4688C150.812 34.9062 151.167 37.1667 151.875 39.25C152.583 41.3333 153.604 43.1458 154.938 44.6875C156.25 46.2292 157.854 47.4375 159.75 48.3125C161.667 49.1875 163.823 49.625 166.219 49.625C168.594 49.625 170.729 49.1875 172.625 48.3125C174.521 47.4375 176.135 46.2292 177.469 44.6875C178.781 43.1458 179.792 41.3333 180.5 39.25C181.208 37.1667 181.562 34.9062 181.562 32.4688V31.7812C181.562 29.3438 181.208 27.0833 180.5 25C179.792 22.8958 178.781 21.0729 177.469 19.5312C176.135 17.9896 174.51 16.7812 172.594 15.9062C170.698 15.0104 168.552 14.5625 166.156 14.5625C163.781 14.5625 161.646 15.0104 159.75 15.9062C157.854 16.7812 156.25 17.9896 154.938 19.5312C153.604 21.0729 152.583 22.8958 151.875 25C151.167 27.0833 150.812 29.3438 150.812 31.7812ZM156.594 32.4688V31.7812C156.594 30.1354 156.792 28.5625 157.188 27.0625C157.583 25.5417 158.188 24.2083 159 23.0625C159.792 21.9167 160.781 21.0104 161.969 20.3438C163.156 19.6562 164.552 19.3125 166.156 19.3125C167.76 19.3125 169.156 19.6562 170.344 20.3438C171.552 21.0104 172.562 21.9167 173.375 23.0625C174.167 24.2083 174.76 25.5417 175.156 27.0625C175.573 28.5625 175.781 30.1354 175.781 31.7812V32.4688C175.781 34.1354 175.583 35.7292 175.188 37.25C174.792 38.75 174.198 40.0729 173.406 41.2188C172.594 42.3646 171.583 43.2708 170.375 43.9375C169.188 44.6042 167.802 44.9375 166.219 44.9375C164.615 44.9375 163.208 44.6042 162 43.9375C160.792 43.2708 159.792 42.3646 159 41.2188C158.188 40.0729 157.583 38.75 157.188 37.25C156.792 35.7292 156.594 34.1354 156.594 32.4688ZM213.031 14.5625C210.573 14.5625 208.375 15.1042 206.438 16.1875C204.521 17.25 202.875 18.7083 201.5 20.5625L201.469 19.7188L201.219 15.1875H195.719V49H201.531V27.3125C201.906 26.2708 202.375 25.3333 202.938 24.5C203.521 23.6458 204.198 22.9271 204.969 22.3438C205.823 21.6771 206.823 21.1771 207.969 20.8438C209.115 20.4896 210.396 20.3125 211.812 20.3125C212.917 20.3125 213.969 20.375 214.969 20.5C215.99 20.6042 217.062 20.7812 218.188 21.0312L218.969 15.375C218.385 15.125 217.51 14.9271 216.344 14.7812C215.198 14.6354 214.094 14.5625 213.031 14.5625ZM230.219 1V6.03125H241.719V44H230.219V49H258.531V44H247.5V1H230.219ZM266.656 31.8125V32.4688C266.656 34.8854 266.979 37.1458 267.625 39.25C268.271 41.3333 269.177 43.1458 270.344 44.6875C271.51 46.2292 272.917 47.4375 274.562 48.3125C276.229 49.1875 278.083 49.625 280.125 49.625C282.208 49.625 284.031 49.2708 285.594 48.5625C287.156 47.8542 288.5 46.8125 289.625 45.4375L289.875 49H295.188V1H289.406V18.5312C288.302 17.2396 286.99 16.2604 285.469 15.5938C283.969 14.9062 282.208 14.5625 280.188 14.5625C278.125 14.5625 276.26 14.9896 274.594 15.8438C272.927 16.6979 271.51 17.8854 270.344 19.4062C269.156 20.9271 268.24 22.75 267.594 24.875C266.969 26.9792 266.656 29.2917 266.656 31.8125ZM272.438 32.4688V31.8125C272.438 30.1667 272.615 28.6042 272.969 27.125C273.323 25.625 273.875 24.3021 274.625 23.1562C275.354 22.0312 276.292 21.1354 277.438 20.4688C278.604 19.8021 280 19.4688 281.625 19.4688C283.521 19.4688 285.104 19.9167 286.375 20.8125C287.646 21.6875 288.656 22.8125 289.406 24.1875V39.875C288.656 41.3542 287.646 42.5312 286.375 43.4062C285.104 44.2812 283.5 44.7188 281.562 44.7188C279.958 44.7188 278.583 44.3958 277.438 43.75C276.292 43.0833 275.354 42.1875 274.625 41.0625C273.875 39.9375 273.323 38.6354 272.969 37.1562C272.615 35.6771 272.438 34.1146 272.438 32.4688ZM369.938 28.9062V24H351V8.4375H373.094V3.5H345.156V49H351V28.9062H369.938ZM383.969 15.1875V20.2188H395.469V44H383.969V49H412.281V44H401.25V15.1875H383.969ZM394.719 6.3125C394.719 7.25 395 8.03125 395.562 8.65625C396.146 9.28125 397.021 9.59375 398.188 9.59375C399.333 9.59375 400.198 9.28125 400.781 8.65625C401.365 8.03125 401.656 7.25 401.656 6.3125C401.656 5.79167 401.573 5.3125 401.406 4.875C401.24 4.4375 400.99 4.07292 400.656 3.78125C400.385 3.51042 400.042 3.30208 399.625 3.15625C399.208 2.98958 398.729 2.90625 398.188 2.90625C397.646 2.90625 397.156 2.98958 396.719 3.15625C396.302 3.30208 395.958 3.51042 395.688 3.78125C395.354 4.09375 395.104 4.46875 394.938 4.90625C394.792 5.34375 394.719 5.8125 394.719 6.3125ZM421.5 49H427.281V24.75C427.677 24.0208 428.135 23.3542 428.656 22.75C429.198 22.1458 429.781 21.6146 430.406 21.1562C431.177 20.6354 432.021 20.2292 432.938 19.9375C433.854 19.625 434.844 19.4688 435.906 19.4688C437.135 19.4688 438.219 19.6146 439.156 19.9062C440.115 20.1979 440.927 20.6667 441.594 21.3125C442.24 21.9583 442.729 22.8021 443.062 23.8438C443.396 24.8854 443.562 26.1562 443.562 27.6562V49H449.344V27.5312C449.344 25.2812 449.062 23.3438 448.5 21.7188C447.958 20.0729 447.177 18.7188 446.156 17.6562C445.135 16.5938 443.896 15.8125 442.438 15.3125C441 14.8125 439.396 14.5625 437.625 14.5625C436.312 14.5833 435.062 14.7812 433.875 15.1562C432.708 15.5104 431.625 16.0208 430.625 16.6875C429.958 17.125 429.323 17.6458 428.719 18.25C428.135 18.8333 427.594 19.4792 427.094 20.1875L426.688 15.1875H421.5V49ZM482.156 49H488.188V48.5C487.812 47.5625 487.521 46.4688 487.312 45.2188C487.104 43.9479 487 42.75 487 41.625V25.9062C487 24.0104 486.656 22.3542 485.969 20.9375C485.281 19.5208 484.344 18.3333 483.156 17.375C481.948 16.4375 480.521 15.7396 478.875 15.2812C477.229 14.8021 475.448 14.5625 473.531 14.5625C471.427 14.5625 469.542 14.8542 467.875 15.4375C466.229 16.0208 464.833 16.7812 463.688 17.7188C462.521 18.6771 461.625 19.75 461 20.9375C460.396 22.125 460.083 23.3333 460.062 24.5625H465.875C465.875 23.8542 466.042 23.1771 466.375 22.5312C466.729 21.8646 467.219 21.2917 467.844 20.8125C468.469 20.3333 469.229 19.9479 470.125 19.6562C471.042 19.3646 472.073 19.2188 473.219 19.2188C474.448 19.2188 475.552 19.375 476.531 19.6875C477.531 20 478.375 20.4375 479.062 21C479.75 21.5833 480.281 22.2812 480.656 23.0938C481.031 23.9062 481.219 24.8229 481.219 25.8438V28.5H474.906C472.552 28.5 470.417 28.7292 468.5 29.1875C466.604 29.6458 464.979 30.3333 463.625 31.25C462.271 32.1875 461.219 33.3542 460.469 34.75C459.74 36.1458 459.375 37.7708 459.375 39.625C459.375 41.0417 459.646 42.3646 460.188 43.5938C460.75 44.8021 461.542 45.8438 462.562 46.7188C463.562 47.6146 464.781 48.3229 466.219 48.8438C467.677 49.3646 469.302 49.625 471.094 49.625C472.198 49.625 473.24 49.5104 474.219 49.2812C475.198 49.0521 476.125 48.7396 477 48.3438C477.854 47.9479 478.635 47.4896 479.344 46.9688C480.073 46.4479 480.729 45.8958 481.312 45.3125C481.375 46.0208 481.469 46.7083 481.594 47.375C481.74 48.0208 481.927 48.5625 482.156 49ZM471.938 44.5938C470.812 44.5938 469.823 44.4479 468.969 44.1562C468.115 43.8646 467.406 43.4583 466.844 42.9375C466.281 42.4375 465.854 41.8333 465.562 41.125C465.292 40.4167 465.156 39.6458 465.156 38.8125C465.156 37.9375 465.312 37.1562 465.625 36.4688C465.958 35.7812 466.438 35.1875 467.062 34.6875C467.938 33.9792 469.115 33.4583 470.594 33.125C472.094 32.7708 473.844 32.5938 475.844 32.5938H481.219V39.4375C480.885 40.1042 480.427 40.75 479.844 41.375C479.26 41.9792 478.573 42.5208 477.781 43C476.969 43.4792 476.073 43.8646 475.094 44.1562C474.115 44.4479 473.062 44.5938 471.938 44.5938ZM498.375 49H504.156V24.75C504.552 24.0208 505.01 23.3542 505.531 22.75C506.073 22.1458 506.656 21.6146 507.281 21.1562C508.052 20.6354 508.896 20.2292 509.812 19.9375C510.729 19.625 511.719 19.4688 512.781 19.4688C514.01 19.4688 515.094 19.6146 516.031 19.9062C516.99 20.1979 517.802 20.6667 518.469 21.3125C519.115 21.9583 519.604 22.8021 519.938 23.8438C520.271 24.8854 520.438 26.1562 520.438 27.6562V49H526.219V27.5312C526.219 25.2812 525.938 23.3438 525.375 21.7188C524.833 20.0729 524.052 18.7188 523.031 17.6562C522.01 16.5938 520.771 15.8125 519.312 15.3125C517.875 14.8125 516.271 14.5625 514.5 14.5625C513.188 14.5833 511.938 14.7812 510.75 15.1562C509.583 15.5104 508.5 16.0208 507.5 16.6875C506.833 17.125 506.198 17.6458 505.594 18.25C505.01 18.8333 504.469 19.4792 503.969 20.1875L503.562 15.1875H498.375V49ZM551.219 44.9375C549.406 44.9375 547.885 44.5833 546.656 43.875C545.448 43.1458 544.479 42.1979 543.75 41.0312C543 39.8854 542.458 38.5938 542.125 37.1562C541.812 35.6979 541.656 34.2292 541.656 32.75V31.4375C541.656 29.9792 541.812 28.5312 542.125 27.0938C542.458 25.6562 543 24.3542 543.75 23.1875C544.5 22.0417 545.479 21.1146 546.688 20.4062C547.917 19.6771 549.427 19.3125 551.219 19.3125C552.385 19.3125 553.469 19.5104 554.469 19.9062C555.49 20.3021 556.365 20.8438 557.094 21.5312C557.823 22.2188 558.396 23.0208 558.812 23.9375C559.25 24.8333 559.479 25.7917 559.5 26.8125H564.969C564.969 25.1042 564.625 23.5 563.938 22C563.25 20.5 562.302 19.1979 561.094 18.0938C559.865 17.0104 558.406 16.1562 556.719 15.5312C555.052 14.8854 553.219 14.5625 551.219 14.5625C548.656 14.5625 546.417 15.0208 544.5 15.9375C542.583 16.8542 540.99 18.0833 539.719 19.625C538.427 21.1875 537.458 22.9896 536.812 25.0312C536.167 27.0729 535.844 29.2083 535.844 31.4375V32.75C535.844 35 536.167 37.1458 536.812 39.1875C537.458 41.2083 538.427 42.9896 539.719 44.5312C540.99 46.0938 542.583 47.3333 544.5 48.25C546.417 49.1667 548.656 49.625 551.219 49.625C553.01 49.625 554.729 49.3229 556.375 48.7188C558.021 48.0938 559.479 47.2604 560.75 46.2188C562.021 45.1979 563.031 44.0104 563.781 42.6562C564.552 41.2812 564.948 39.8438 564.969 38.3438H559.5C559.479 39.2812 559.229 40.1562 558.75 40.9688C558.292 41.7604 557.677 42.4479 556.906 43.0312C556.135 43.6354 555.25 44.1042 554.25 44.4375C553.271 44.7708 552.26 44.9375 551.219 44.9375ZM590.188 49.625C593.479 49.625 596.24 48.9688 598.469 47.6562C600.719 46.3229 602.406 44.8021 603.531 43.0938L600 40.3438C598.938 41.7188 597.604 42.8229 596 43.6562C594.396 44.4896 592.562 44.9062 590.5 44.9062C588.938 44.9062 587.51 44.6146 586.219 44.0312C584.927 43.4479 583.823 42.6458 582.906 41.625C582.01 40.6667 581.302 39.5625 580.781 38.3125C580.281 37.0625 579.958 35.6146 579.812 33.9688V33.75H603.969V31.1562C603.969 28.8021 603.667 26.6146 603.062 24.5938C602.479 22.5729 601.583 20.8125 600.375 19.3125C599.167 17.8333 597.646 16.6771 595.812 15.8438C594 14.9896 591.875 14.5625 589.438 14.5625C587.5 14.5625 585.604 14.9583 583.75 15.75C581.917 16.5417 580.281 17.6771 578.844 19.1562C577.385 20.6562 576.219 22.4896 575.344 24.6562C574.469 26.8021 574.031 29.2396 574.031 31.9688V33.2812C574.031 35.6354 574.427 37.8125 575.219 39.8125C576.01 41.8125 577.115 43.5417 578.531 45C579.948 46.4583 581.646 47.5938 583.625 48.4062C585.625 49.2188 587.812 49.625 590.188 49.625ZM589.438 19.3125C590.917 19.3125 592.188 19.5833 593.25 20.125C594.333 20.6667 595.229 21.375 595.938 22.25C596.646 23.125 597.198 24.1667 597.594 25.375C597.99 26.5625 598.188 27.6771 598.188 28.7188V29H580C580.229 27.4375 580.625 26.0625 581.188 24.875C581.771 23.6667 582.479 22.6458 583.312 21.8125C584.146 21 585.083 20.3854 586.125 19.9688C587.167 19.5312 588.271 19.3125 589.438 19.3125Z" fill="url(#paint1_linear)"/>
<path d="M147.234 75.625V86.9453H171.211V166.75H147.234V178H209.109V166.75H184.57V86.9453H209.109V75.625H147.234ZM307.924 178V75.625H294.775L294.564 151.984L254.838 75.625H241.619V178H254.768L254.978 101.5L294.705 178H307.924ZM339.027 178H362.723C367.644 177.953 372.215 177.367 376.433 176.242C380.699 175.117 384.519 173.5 387.894 171.391C391.082 169.375 393.965 166.938 396.543 164.078C399.121 161.219 401.254 158.031 402.941 154.516C404.582 151.141 405.824 147.438 406.668 143.406C407.558 139.375 408.004 135.109 408.004 130.609V123.086C407.957 118.398 407.465 113.992 406.527 109.867C405.637 105.742 404.324 101.945 402.59 98.4766C400.668 94.3984 398.09 90.8125 394.855 87.7188C391.668 84.5781 387.988 82.0469 383.816 80.125C380.816 78.7188 377.535 77.6406 373.973 76.8906C370.457 76.0938 366.707 75.6719 362.723 75.625H339.027V178ZM352.246 86.3125H362.723C365.957 86.3594 368.933 86.7344 371.652 87.4375C374.371 88.0938 376.832 89.0312 379.035 90.25C382.129 91.8906 384.73 94.0469 386.84 96.7188C388.996 99.3438 390.707 102.297 391.973 105.578C392.957 108.109 393.683 110.852 394.152 113.805C394.668 116.711 394.949 119.758 394.996 122.945V130.609C394.949 133.75 394.691 136.773 394.223 139.68C393.754 142.539 393.051 145.211 392.113 147.695C391.035 150.742 389.558 153.508 387.683 155.992C385.855 158.43 383.676 160.492 381.144 162.18C378.754 163.82 376.012 165.086 372.918 165.977C369.871 166.867 366.473 167.336 362.723 167.383H352.246V86.3125ZM436.927 75.625V86.9453H460.904V166.75H436.927V178H498.802V166.75H474.263V86.9453H498.802V75.625H436.927ZM582.359 151.492L590.445 178H603.383L570.898 75.625H560L526.953 178H539.961L548.187 151.492H582.359ZM551.703 140.172L565.414 95.7344L578.914 140.172H551.703Z" fill="url(#paint2_linear)"/>
<defs>
<linearGradient id="paint0_linear" x1="58.5" y1="-84" x2="58.5" y2="221" gradientUnits="userSpaceOnUse">
<stop stop-color="#415CE7"/>
<stop offset="0.964559" stop-color="#00F0FF" stop-opacity="0.557292"/>
<stop offset="1" stop-color="#00A3FF" stop-opacity="0"/>
</linearGradient>
<linearGradient id="paint1_linear" x1="471.5" y1="-18" x2="471.5" y2="48" gradientUnits="userSpaceOnUse">
<stop stop-color="#00A3FF"/>
<stop offset="1" stop-color="#05C3FF" stop-opacity="0.90625"/>
</linearGradient>
<linearGradient id="paint2_linear" x1="340" y1="-53.2316" x2="338.483" y2="144.629" gradientUnits="userSpaceOnUse">
<stop stop-color="#1D0AF9"/>
<stop offset="1" stop-color="#53E3F7" stop-opacity="0.84375"/>
</linearGradient>
</defs>
</svg>
